<svg width="602" height="598" viewBox="0 0 602 598" fill="none" xmlns="http://www.w3.org/2000/svg">
<path d="M319.769 215.044L320.617 223.412L325.256 216.396L427.978 61.0632L358.495 233.841L355.356 241.644L362.725 237.589L525.867 147.785L384.049 268.482L377.643 273.933L386.053 273.766L572.242 270.065L390.577 311.03L382.373 312.88L389.896 316.64L556.478 399.89L376.585 351.739L368.46 349.564L373.375 356.39L482.188 507.519L345.277 381.282L339.093 375.581L340.273 383.909L366.389 568.294L303.826 392.892L301 384.97L298.174 392.892L235.611 568.294L261.727 383.909L262.907 375.581L256.723 381.282L119.812 507.519L228.625 356.39L233.54 349.564L225.415 351.739L45.5216 399.89L212.104 316.64L219.627 312.88L211.423 311.03L29.7581 270.065L215.947 273.766L224.357 273.933L217.951 268.482L76.1328 147.785L239.275 237.589L246.644 241.644L243.506 233.841L174.022 61.0632L276.744 216.396L281.383 223.412L282.231 215.044L301 29.7658L319.769 215.044Z" stroke="#B17686" stroke-opacity="0.57" stroke-width="6"/>
</svg>
